<svg width="345" height="90" viewBox="0 0 345 90" fill="none" xmlns="http://www.w3.org/2000/svg">
<g clip-path="url(#clip0)">
<path d="M37.1034 88.4691C34.7719 88.4999 32.5124 87.6628 30.7649 86.121C28.9107 84.4896 27.4257 82.4826 26.4086 80.2334C25.3207 77.9195 24.4898 75.4936 23.9308 72.9991C23.4279 70.8975 23.1516 68.7481 23.1068 66.5878C24.2093 66.3537 25.5846 66.0008 27.2326 65.5288C28.9725 65.0257 30.6669 64.3769 32.2977 63.5893C33.9014 62.8411 35.3514 61.8009 36.5733 60.5218C37.7074 59.3341 38.3284 57.7486 38.302 56.1076C38.3287 55.4756 38.2219 54.8452 37.9886 54.2572C37.7553 53.6692 37.4007 53.1368 36.9478 52.6947C35.8929 51.7767 34.518 51.3114 33.1217 51.3998C30.8421 51.4247 28.6352 52.2039 26.8465 53.6155C24.7339 55.2225 22.885 57.1487 21.3666 59.3247C19.6292 61.7481 18.0877 64.3057 16.7568 66.9734C15.3776 69.7206 14.1599 72.3871 13.1035 74.9731C12.047 77.5591 11.1635 79.7941 10.4528 81.678C9.58846 84.0338 8.76445 85.6222 7.98078 86.4433C7.52838 86.8747 6.99079 87.2072 6.40239 87.4193C5.814 87.6313 5.18776 87.7184 4.56374 87.6749C3.89743 87.6353 3.24543 87.4652 2.64489 87.1742C1.89579 86.8634 1.2677 86.0749 0.760623 84.8261C0.253541 83.5772 0 81.5686 0 78.8234C0.0637607 73.51 0.734609 68.2213 1.99952 63.0599C3.40111 57.1247 5.19127 51.2879 7.35845 45.587C9.59422 39.6707 12.0566 34.0056 14.7457 28.5919C17.187 23.5851 19.8993 18.7148 22.8705 14.0024C25.107 10.3576 27.6826 6.93149 30.5632 3.76966C32.9603 1.26039 34.9445 0.00383681 36.5157 0C37.8487 0 38.9665 0.80573 39.8693 2.41719C40.853 4.3231 41.3292 6.44969 41.2523 8.59253C41.1713 11.6336 40.5651 14.6379 39.4602 17.4728C38.1717 20.9458 36.4918 24.261 34.4528 27.3545C32.2221 30.7748 29.6358 33.9501 26.737 36.8276C23.7793 39.7866 20.4543 42.3552 16.8432 44.4705C12.9536 53.4866 10.4962 63.0537 9.55965 72.8264C10.9733 69.6112 12.5829 66.3173 14.3884 62.9448C16.1495 59.6413 18.1566 56.4747 20.3928 53.4717C22.3819 50.7414 24.787 48.3392 27.5207 46.3525C29.8948 44.6082 32.7617 43.6612 35.7089 43.6475C38.783 43.6215 41.7435 44.8063 43.949 46.9453C45.0946 47.9838 46.0034 49.2562 46.6138 50.6761C47.2243 52.096 47.5221 53.6303 47.4871 55.1752C47.5363 57.3641 46.8753 59.5102 45.6028 61.293C44.3463 63.0155 42.7646 64.476 40.9469 65.5921C39.2041 66.6819 37.322 67.5317 35.3517 68.1187C33.7816 68.6082 32.1622 68.9228 30.5229 69.0568C30.7572 70.0812 31.0914 71.3761 31.5255 72.9416C31.9664 74.5236 32.5448 76.0642 33.2542 77.5457C33.9074 78.962 34.8268 80.2397 35.9625 81.3096C37.0076 82.31 38.4046 82.8599 39.852 82.8405C41.815 82.8405 43.8376 81.9389 45.9197 80.1356C48.2674 78.0216 50.3268 75.6087 52.045 72.9588C54.1243 69.832 55.9178 66.5248 57.404 63.0771L59.052 65.0799C57.6898 69.0515 55.8497 72.8432 53.572 76.3717C51.5037 79.6981 48.8985 82.6598 45.8621 85.1368C43.0078 87.3584 40.0883 88.4691 37.1034 88.4691ZM20.2602 36.4708C22.6601 34.2988 24.9034 31.9602 26.9733 29.4724C29.3082 26.715 31.3422 23.7168 33.041 20.5288C34.6206 17.7366 35.5281 14.6156 35.6916 11.4126V11.0615C34.9003 11.3761 33.6633 12.719 31.9807 15.0902C29.9541 18.0468 28.0864 21.1091 26.3855 24.264C24.3419 27.9358 22.3001 32.0047 20.2602 36.4708Z" fill="#052849"/>
<path d="M60.7749 89.5281C58.2709 89.5595 55.8492 88.6352 54.0042 86.944C52.0835 85.2174 51.1231 82.6276 51.1231 79.1744C51.1905 76.1042 51.8295 73.0733 53.0073 70.2366C54.3478 66.8638 56.089 63.6641 58.1934 60.706C60.3737 57.5866 62.9023 54.7251 65.7305 52.1767C68.4487 49.7035 71.5019 47.6246 74.8003 46.0014C77.7998 44.4859 81.1083 43.6805 84.4695 43.6475C87.5409 43.5545 90.5591 44.4637 93.0668 46.2374C94.1694 46.9925 95.0669 48.0095 95.6784 49.197C96.2899 50.3844 96.5964 51.705 96.5703 53.04C96.5703 55.1579 95.8231 56.6927 94.3288 57.6442C92.7372 58.6 90.8343 58.8954 89.0274 58.4672C89.183 57.7593 89.3213 57.0514 89.4423 56.3493C89.5603 55.6089 89.6181 54.8602 89.6152 54.1105C89.6388 52.6464 89.3171 51.1973 88.6759 49.8804C88.0459 48.6258 86.7014 47.9985 84.6423 47.9985C82.233 48.0648 79.8972 48.8417 77.9293 50.2315C75.4899 51.8614 73.2889 53.8215 71.3891 56.0558C69.2763 58.4975 67.4027 61.1359 65.7939 63.9346C64.2327 66.6088 62.9321 69.4264 61.9101 72.3488C61.0333 74.7252 60.5544 77.2296 60.4926 79.7615C60.4926 82.2707 61.3972 83.5254 63.2066 83.5254C65.016 83.5254 67.0174 82.6429 69.2109 80.878C71.6408 78.8839 73.8699 76.6576 75.8664 74.2307C78.1021 71.5641 80.2419 68.8381 82.2856 66.0526C84.3293 63.267 86.0964 60.8959 87.5869 58.9391C87.6761 58.7668 87.8107 58.6222 87.9763 58.5208C88.1418 58.4193 88.3319 58.365 88.5261 58.3636C88.843 58.4442 89.4539 58.6226 90.3528 58.8931C91.2573 59.1712 92.1127 59.5887 92.8882 60.1305C93.2443 60.3569 93.537 60.6701 93.7386 61.0406C93.9402 61.4111 94.0441 61.8267 94.0406 62.2484C93.952 63.3129 93.6103 64.3408 93.0438 65.2468C92.3753 66.4669 91.5859 67.7964 90.687 69.2467C89.8085 70.6469 89.0213 72.1021 88.3302 73.6034C87.697 74.9052 87.3549 76.3289 87.3276 77.7759C87.3295 78.7929 87.6148 79.7893 88.1516 80.6535C88.4357 81.105 88.8386 81.4699 89.3161 81.7084C89.7937 81.9469 90.3277 82.0499 90.8598 82.006C92.7422 82.006 95.3929 80.6132 98.8118 77.8277C102.231 75.0422 105.705 70.3172 109.236 63.6526L111.477 65.8914C109.716 69.9141 107.438 73.6905 104.701 77.1256C102.366 80.1061 99.5619 82.6875 96.3974 84.7685C93.7819 86.523 90.7141 87.4844 87.5638 87.5368C84.3446 87.5368 81.9494 86.5162 80.3782 84.475C78.8666 82.593 77.9624 80.2972 77.7852 77.891V77.3155C75.172 80.5439 72.2798 83.5366 69.1418 86.2591C66.5487 88.4384 63.7598 89.5281 60.7749 89.5281Z" fill="#052849"/>
<path d="M117.194 89.413C113.736 89.413 110.949 88.3924 108.832 86.3512C106.716 84.31 105.656 81.2118 105.652 77.0565C105.652 73.8451 106.261 69.8472 107.478 65.0627C108.767 60.0429 110.319 55.0942 112.128 50.2372C111.49 50.0619 110.841 49.9236 110.187 49.8229C109.435 49.7071 108.702 49.4902 108.008 49.1783V45.5583C109.265 45.7194 110.313 45.8345 111.132 45.9151L113.661 46.1453C115.328 41.9708 117.122 37.9384 119.043 34.0478C120.964 30.1573 122.885 26.6869 124.806 23.6367C126.377 21.044 128.211 18.6198 130.28 16.4024C132.008 14.6336 133.545 13.7511 134.89 13.755C135.716 13.772 136.509 14.0844 137.125 14.6355C137.484 14.9486 137.766 15.3397 137.95 15.7787C138.134 16.2176 138.214 16.6929 138.186 17.1678C138.186 18.7409 137.381 20.9758 135.771 23.8726C134.162 26.7694 132.172 30.1611 129.801 34.0478C127.447 37.9345 125.169 42.0725 122.967 46.4618H126.621C130.078 46.4618 133.199 46.4024 135.984 46.2834C138.769 46.1645 141.616 45.9496 144.524 45.6388V49.5178C140.202 49.9015 136.236 50.2161 132.625 50.4617C129.014 50.7072 125.557 50.8646 122.253 50.9336H120.841C119.186 54.7899 117.751 58.7366 116.542 62.7548C115.358 66.5848 114.742 70.5676 114.716 74.576C114.716 77.7913 115.227 80.0665 116.249 81.4017C117.268 82.7369 118.876 83.3988 121.077 83.3988C125.003 83.3988 129.037 81.6147 133.178 78.0464C137.319 74.4782 140.913 69.6361 143.959 63.5203L145.607 64.6713C143.635 69.1804 141.08 73.4119 138.007 77.258C135.272 80.7702 131.943 83.7775 128.171 86.144C124.891 88.2411 121.087 89.3739 117.194 89.413Z" fill="#052849"/>
<path d="M154.193 90C150.263 90 147.102 89.1962 144.708 87.5886C142.425 86.1094 140.639 83.9776 139.586 81.4708C138.581 79.0677 138.062 76.4897 138.059 73.8854C138.059 71.614 138.374 69.8491 139.004 68.5906C139.518 67.4678 140.334 66.5095 141.361 65.8224C142.199 65.2884 143.087 64.8355 144.011 64.4699C144.687 64.2472 145.309 63.8865 145.838 63.4109C147.983 61.1519 150.003 58.7772 151.888 56.2975C154.014 53.5119 155.812 50.4917 157.247 47.2963V46.1453C157.247 43.0145 157.777 40.793 158.838 39.5038C159.263 38.915 159.82 38.4329 160.464 38.0954C161.108 37.7578 161.822 37.5741 162.549 37.5585C162.923 37.5247 163.3 37.5703 163.656 37.6923C164.011 37.8143 164.337 38.0099 164.611 38.2664C165.035 38.7204 165.303 39.2966 165.378 39.9124C165.362 40.4726 165.263 41.0274 165.084 41.5584C164.861 42.403 164.762 43.2753 164.79 44.1482C164.879 46.9156 165.465 49.6446 166.519 52.2055C167.671 55.2289 168.81 58.425 169.936 61.7937C171.074 65.1295 171.658 68.6289 171.664 72.1531C171.664 73.097 171.624 73.9602 171.549 74.7429C171.475 75.4938 171.356 76.2395 171.192 76.976C173.875 76.2114 176.338 74.8207 178.378 72.9185C180.736 70.8428 182.976 67.7734 185.096 63.7102L186.508 64.7692C184.979 69.1968 182.803 72.7689 179.979 75.4854C177.273 78.1286 173.816 79.8731 170.08 80.4809C168.958 83.5428 166.761 86.0933 163.897 87.6576C160.915 89.2517 157.575 90.0581 154.193 90ZM153.369 84.8203C154.899 84.8365 156.404 84.4388 157.726 83.6693C159.089 82.8571 160.193 81.6731 160.906 80.2564C157.778 79.5941 154.814 78.3144 152.188 76.4925C149.907 74.9785 147.881 73.1138 146.184 70.9675C145.081 71.1977 144.532 72.2548 144.536 74.1386C144.537 76.7392 145.316 79.28 146.771 81.4362C148.262 83.6961 150.457 84.8261 153.358 84.8261L153.369 84.8203ZM161.851 76.6997C162.021 76.066 162.119 75.4156 162.145 74.7602C162.18 74.0178 162.203 73.448 162.203 73.0336C162.121 69.5008 161.648 65.9879 160.791 62.5592C159.923 59.106 159.059 55.5781 158.198 51.9753C156.784 54.404 155.134 57.0303 153.248 59.8542C151.68 62.2755 149.909 64.559 147.953 66.6799C149.4 69.0102 151.278 71.0451 153.484 72.6768C155.956 74.5903 158.803 75.963 161.84 76.7055L161.851 76.6997Z" fill="#052849"/>
<path d="M190.697 87.531C188.008 87.531 185.828 86.2955 184.157 83.8246C182.456 81.3091 181.572 78.3307 181.628 75.2954C181.683 72.6755 182.038 70.0706 182.688 67.5316C183.387 64.5632 184.312 61.6522 185.454 58.824C186.407 56.3667 187.59 54.0043 188.986 51.7681C190.202 49.8862 191.325 48.9423 192.345 48.9423C193.241 49.0544 194.103 49.3545 194.875 49.8229C195.983 50.3928 196.997 51.1284 197.883 52.0041C196.694 53.8387 195.65 55.7629 194.76 57.7593C193.493 60.4686 192.411 63.2605 191.521 66.1159C190.638 68.7329 190.16 71.4694 190.104 74.2307C190.104 74.5472 190.167 75.2897 190.282 76.4637C190.393 77.6039 190.691 78.7181 191.164 79.7615C191.367 80.2416 191.715 80.6466 192.159 80.92C192.603 81.1934 193.121 81.3215 193.642 81.2866C194.973 81.2866 196.408 80.5672 197.941 79.1111C199.697 77.3932 201.275 75.5016 202.648 73.4653C204.262 71.1632 205.833 68.6693 207.362 65.9835C208.891 63.2977 210.266 60.7098 211.488 58.2197C212.705 55.7104 213.706 53.6002 214.49 51.889C215.425 52.0139 216.349 52.2062 217.256 52.4645C218.307 52.7426 219.316 53.1587 220.258 53.7019C220.655 53.9083 220.987 54.2212 221.216 54.6055C221.445 54.9898 221.562 55.4302 221.554 55.8773C221.275 56.8702 220.901 57.8339 220.437 58.7549C219.687 60.4412 218.829 62.4613 217.843 64.8152C216.862 67.1846 216.004 69.6031 215.274 72.061C214.574 74.1691 214.186 76.3676 214.121 78.5874C214.1 79.5853 214.324 80.5731 214.772 81.465C215.206 82.2899 216.049 82.7024 217.302 82.7024C218.958 82.7024 220.921 81.9561 223.191 80.4636C225.833 78.6455 228.211 76.4705 230.255 74.0005C232.85 70.9266 235.027 67.5248 236.732 63.8828L238.501 65.2929C236.844 69.4092 234.581 73.2556 231.788 76.7054C229.312 79.83 226.325 82.515 222.955 84.6476C219.808 86.566 216.745 87.5252 213.764 87.5252C211.459 87.5252 209.776 86.9958 208.641 85.9368C207.47 84.8305 206.665 83.3925 206.336 81.8161C205.944 80.136 205.709 78.4232 205.633 76.6997V74.3343C204.286 76.468 202.83 78.5311 201.271 80.5154C199.826 82.3883 198.145 84.0673 196.269 85.5109C194.688 86.7839 192.728 87.4947 190.697 87.531Z" fill="#052849"/>
<path d="M295.289 87.6461C292.229 87.6461 289.947 86.7426 288.46 84.9412C286.961 83.1228 286.166 80.8272 286.219 78.4723C286.224 76.6383 286.502 74.8152 287.043 73.0624C287.596 71.2553 288.147 69.4692 288.697 67.7043C289.207 66.1676 289.485 64.5634 289.521 62.9448C289.521 61.6096 289.261 60.6887 288.754 60.1765C288.499 59.9243 288.196 59.7264 287.862 59.5948C287.528 59.4632 287.171 59.4007 286.812 59.4111C285.003 59.4111 282.902 60.7846 280.508 63.5318C277.309 67.352 274.34 71.359 271.617 75.5314C270.338 77.4502 269.157 79.4325 268.079 81.4708C266.98 83.5465 265.999 85.2922 265.135 86.708C264.203 86.6794 263.277 86.5599 262.369 86.3512C261.329 86.1504 260.32 85.8157 259.367 85.3556C258.502 84.9258 258.07 84.3503 258.07 83.629C258.07 82.9269 258.462 81.5514 259.222 79.514C259.983 77.4767 260.911 75.0998 261.937 72.3948C262.962 69.6899 263.855 67.0252 264.645 64.3951C265.34 62.2445 265.728 60.0067 265.797 57.7478C265.848 56.848 265.648 55.9517 265.221 55.158C265.021 54.8461 264.74 54.5942 264.409 54.4291C264.077 54.2639 263.706 54.1916 263.337 54.2199C261.689 54.2199 259.701 55.1982 257.39 57.1608C254.716 59.4929 252.269 62.0732 250.084 64.867C247.431 68.2184 245.041 71.7683 242.933 75.4854C240.765 79.2163 238.933 83.1318 237.458 87.1857C236.38 87.1529 235.31 86.9768 234.278 86.662C233.134 86.3496 232.027 85.9154 230.976 85.3671C230.037 84.8549 229.564 84.4059 229.564 84.0146C229.564 83.934 229.839 82.8156 230.388 80.6593C230.937 78.503 231.606 75.8173 232.393 72.602C233.162 69.3829 233.986 66.089 234.865 62.7203C235.745 59.3516 236.49 56.4107 237.101 53.8976C237.339 53.0343 238.204 52.2669 239.694 51.5955C240.907 50.9969 242.232 50.656 243.584 50.5941C244.626 50.575 245.635 50.9538 246.407 51.653C246.799 52.0095 247.107 52.4471 247.311 52.9353C247.515 53.4234 247.61 53.9503 247.588 54.4788C247.539 55.6288 247.38 56.7714 247.116 57.8917C246.797 59.3842 246.403 61.0705 245.935 62.9505C247.59 60.752 249.338 58.5746 251.178 56.4183C252.948 54.333 254.874 52.3859 256.941 50.5941C258.771 48.9882 260.786 47.6067 262.945 46.4791C264.779 45.5028 266.82 44.9779 268.897 44.9482C271.802 44.9482 273.765 45.988 274.786 48.0675C275.825 50.1684 276.361 52.4812 276.354 54.8242C276.357 55.8284 276.278 56.8312 276.118 57.8226C275.961 58.8148 275.745 59.7969 275.472 60.7635C275.196 61.7477 274.827 62.9045 274.354 64.2167C275.811 62.0729 277.444 60.0536 279.235 58.1794C280.897 56.4178 282.826 54.9282 284.951 53.7652C286.937 52.6803 289.165 52.1141 291.428 52.1192C294.501 52.1192 296.614 53.04 297.766 54.8817C298.93 56.6883 299.543 58.7938 299.53 60.9419C299.509 63.1159 299.173 65.2753 298.533 67.3532C297.864 69.5863 297.196 71.6965 296.528 73.684C295.926 75.3262 295.588 77.0529 295.525 78.8004C295.516 79.5643 295.715 80.3163 296.101 80.9758C296.499 81.6434 297.282 81.9772 298.458 81.9772C300.578 81.9772 302.62 80.9969 304.583 79.0363C306.709 76.866 308.55 74.4352 310.063 71.802C311.645 69.161 313.088 66.4388 314.385 63.6469L316.384 66.1216C315.037 69.5257 313.404 72.8101 311.504 75.94C309.652 79.0971 307.284 81.9218 304.497 84.2966C301.936 86.4918 298.663 87.6822 295.289 87.6461Z" fill="#052849"/>
<path d="M320.85 87.531C317.393 87.531 314.802 86.5104 313.077 84.4692C311.335 82.3974 310.413 79.7607 310.484 77.0565C310.551 74.7558 310.868 72.4691 311.429 70.2366C312.116 67.3025 313.002 64.4183 314.08 61.6038C315.177 58.6547 316.494 55.792 318.021 53.04C319.313 50.647 320.939 48.4495 322.85 46.5136C324.578 44.8293 326.307 43.9852 328.036 43.9813C328.94 43.9706 329.817 44.2852 330.508 44.8676C330.866 45.1796 331.149 45.5696 331.332 46.0077C331.516 46.4457 331.597 46.9201 331.568 47.3942C331.568 48.4186 330.957 49.9437 329.741 51.9983C328.526 54.0529 327.108 56.3896 325.5 59.0542C323.896 61.7169 322.479 64.4881 321.259 67.3475C320.107 69.9233 319.488 72.705 319.438 75.5256C319.438 78.0349 319.888 79.6982 320.793 80.5269C321.697 81.3557 323.011 81.7585 324.734 81.7585C327.423 81.7585 330.329 80.4252 333.452 77.7587C336.576 75.0921 339.841 70.4265 343.248 63.762L345.012 65.6439C342.265 72.5502 338.771 77.9217 334.53 81.7585C330.289 85.5953 325.729 87.5195 320.85 87.531ZM334.749 34.4737C333.317 34.4895 331.909 34.1026 330.686 33.3572C330.096 33.0022 329.614 32.4929 329.292 31.8844C328.97 31.2759 328.821 30.5912 328.86 29.9041C328.86 28.024 329.88 26.4145 331.92 25.0755C333.79 23.8025 335.995 23.1079 338.258 23.0784C339.522 23.0399 340.77 23.3656 341.854 24.0165C342.833 24.6496 343.323 25.7834 343.323 27.4293C343.323 29.0753 342.418 30.6638 340.615 32.1947C339.001 33.6406 336.916 34.4507 334.749 34.4737Z" fill="#052849"/>
</g>
<defs>
<clipPath id="clip0">
<rect width="345" height="90" fill="white"/>
</clipPath>
</defs>
</svg>
